<svg width="500" height="367" viewBox="0 0 500 367" fill="none" xmlns="http://www.w3.org/2000/svg">
<path d="M418.932 124.408C418.791 124.314 418.697 124.314 418.603 124.314C417.523 123.845 416.396 123.516 415.269 123.375C415.269 123.469 415.363 123.563 415.456 123.563C413.343 123.892 412.028 125.677 410.149 126.522C408.035 127.508 405.734 126.804 403.526 127.086C401.084 127.414 398.688 128.73 396.246 129.34C393.757 129.998 391.69 131.219 389.294 132.064C387.604 132.675 384.785 132.675 383.752 130.89C383.47 130.374 383.893 129.763 383.846 129.199C383.752 128.213 383.282 127.086 382.766 126.193C381.498 123.892 378.867 122.53 376.988 120.745C375.11 118.96 373.325 117.081 371.164 115.625C368.863 114.028 366.796 112.948 365.152 110.599C363.837 108.721 362.851 106.654 361.395 104.916C359.657 102.849 357.073 101.769 355.383 99.7024C354.02 98.0585 353.879 95.9449 352.752 94.207C351.672 92.4691 349.652 91.8585 348.29 90.4494C347.492 89.604 347.68 88.007 347.586 86.9267C347.069 80.5389 342.09 77.1101 338.755 72.1783C337.581 70.4404 338.098 68.6556 337.769 66.7299C337.393 64.5693 335.937 63.1132 334.293 61.798C332.367 60.295 330.536 58.9799 329.22 56.8663C327.671 54.4238 326.543 51.7936 325.369 49.1633C327.483 47.6133 330.442 47.5663 330.677 44.3254C330.864 41.4603 329.596 38.2194 328.469 35.636C326.496 31.127 322.927 30.5633 318.464 29.577C314.989 28.8255 312.781 27.4634 309.352 29.2012C306.393 30.7042 303.998 31.7376 300.616 31.3149C297.281 30.8921 294.134 29.7179 290.94 28.8255C289.531 28.4497 288.216 28.1679 286.901 27.4634C285.727 26.8058 284.553 25.9134 283.19 25.7255C281.687 24.4103 278.118 25.2558 275.863 25.0209C275.769 24.7861 275.487 23.6588 275.44 23.4709C275.346 23.5179 275.206 23.5649 275.065 23.5179C275.065 22.7664 274.783 22.1088 274.642 21.5452C271.072 20.0891 265.53 21.1225 263.651 24.7861C262.618 26.8058 263.839 29.2012 262.759 31.127C261.209 33.8982 257.968 32.8179 255.619 32.0664C254.069 30.3285 249.889 29.577 248.104 30.7512C247.634 30.7982 246.648 30.5164 245.944 30.0936C245.991 29.6709 245.991 28.5437 245.803 28.2149C245.803 28.2149 245.004 27.1346 245.004 27.6043C245.004 27.3224 245.051 27.0406 245.051 26.7588C245.051 26.6649 243.971 26.1482 243.877 26.1012C243.548 25.9134 243.172 25.7255 242.797 25.5846C241.998 25.2558 241.247 24.8331 240.542 24.3634C239.697 24.1755 238.992 23.8467 238.194 23.5179C237.348 23.1891 236.456 23.0013 235.61 22.8134C234.624 22.5785 233.638 22.3437 232.604 22.1088C231.007 21.6391 229.41 21.0755 227.766 20.6997C226.545 20.4179 225.324 20.4649 224.15 19.9013C223.962 19.7134 223.68 19.4316 223.21 19.1028C222.318 18.4922 222.224 17.5528 222.365 16.5664C222.365 15.9558 222.553 15.2983 222.835 14.7346C223.022 14.3119 223.351 13.9831 223.304 13.4195C223.257 12.4801 222.459 11.6816 221.895 10.9771C221.332 10.2256 221.003 9.09828 220.674 8.25283C221.332 7.45435 221.566 6.51496 221.519 5.34072C221.519 5.43466 221.613 5.5286 221.613 5.48163C221.566 5.01194 221.519 5.01194 221.05 4.68315C220.862 3.55588 218.513 1.48923 216.682 1.77104C216.024 1.16044 216.447 1.34832 215.413 1.25438C214.662 0.596806 214.427 0.643775 213.394 0.361958C212.783 -0.0137979 211.985 -0.154706 210.857 0.22105C209.871 -0.201676 208.556 0.502866 208.65 0.596805C207.57 2.00589 205.738 3.18013 203.953 2.42862C203.342 2.38165 202.92 2.42862 202.309 2.47558C201.604 1.44226 200.289 1.11347 198.974 1.44226C197.048 -0.0607673 196.062 2.28771 194.277 2.56952C191.741 2.94528 189.392 1.20741 186.809 1.81801C186.715 1.6771 186.715 1.48923 186.809 1.34832C183.474 1.16044 176.711 4.11952 174.221 6.23314C172.624 6.32708 170.135 6.74981 168.256 7.64223C168.256 7.45435 168.162 7.31344 168.068 7.2195C167.035 7.64223 166.095 7.59526 165.109 8.15889C164.029 7.92405 162.855 8.20586 161.915 8.86344C161.445 8.86344 160.365 8.91041 159.755 8.62859C159.003 8.67556 157.03 8.48768 156.655 8.39374C156.795 8.20586 155.903 8.01799 155.574 8.01799C155.527 7.2195 155.621 7.40738 154.917 6.46799C154.964 6.51496 155.011 6.56193 155.058 6.6089C155.245 3.97861 152.052 3.27407 150.032 4.02558C148.341 4.68315 147.965 7.03163 147.12 8.44071C144.865 12.4801 141.108 13.5604 137.162 15.3922C132.935 17.3649 129.318 20.5588 128.144 25.1618C127.58 27.2755 127.815 29.3891 126.782 31.3618C125.655 33.5224 123.87 35.3542 122.085 36.9512C120.206 38.6421 118.327 40.0981 115.932 40.8966C113.396 41.7421 111.235 42.6345 109.685 44.8421C108.276 46.8618 106.82 48.5057 104.847 49.9148C103.015 51.2299 101.09 52.4042 99.6336 54.189C98.1306 55.9738 97.2382 58.1814 95.8291 60.1072C94.373 62.1268 92.7761 64.0526 91.2261 66.0253C88.5018 69.548 85.2609 73.6813 85.0731 78.2843C89.0655 79.1768 86.4822 84.0616 86.2943 86.6919C86.1064 88.6176 86.4352 90.5434 86.4352 92.5161C86.4352 94.3479 85.9185 96.1797 85.3079 97.9176C84.1337 101.346 82.5367 105.104 80.4701 108.157C79.4367 109.707 78.5443 111.116 79.061 113.042C79.6246 115.014 80.3292 116.752 80.611 118.772C81.1746 122.577 82.3958 126.146 84.9791 129.058C87.7034 132.158 90.8973 134.883 93.4336 138.17C96.0639 141.552 96.9094 145.498 98.7882 149.302C99.7745 151.275 101.09 153.013 102.828 154.328C104.331 155.502 106.068 156.395 107.337 157.804C109.262 159.964 110.343 162.689 112.456 164.708C114.194 166.305 116.261 167.573 118.656 167.855C121.193 168.137 123.682 167.432 126.077 166.681C128.661 165.835 131.385 165.272 134.109 165.037C137.162 164.755 140.262 164.755 143.268 165.225C145.852 165.648 148.435 166.446 151.065 166.54C154.353 166.681 156.795 165.131 159.848 164.239C162.479 163.44 165.203 163.299 167.88 162.923C171.027 162.501 173.141 161.467 175.912 159.917C177.885 158.837 180.045 158.555 181.83 160.152C183.568 161.702 185.165 163.487 186.762 165.178C188.124 166.681 189.721 168.607 191.647 169.311C194.559 170.345 197.753 169.264 200.759 170.157C202.873 170.767 204.798 172.364 206.348 173.867C208.086 175.558 208.932 177.108 208.744 179.551C208.556 181.899 207.851 184.341 208.368 186.69C207.194 189.696 205.174 192.89 205.691 196.272C206.254 199.888 209.589 202.8 211.985 205.384C217.151 210.926 221.566 217.267 225.23 223.89C226.122 225.534 227.203 227.178 227.813 228.962C228.471 230.794 228.048 232.72 228.001 234.552C227.907 237.652 229.645 240.094 230.96 242.725C234.295 249.441 227.907 254.185 227.344 260.667H227.015C225.559 263.955 224.244 267.384 223.445 270.906C222.224 276.496 222.647 282.179 225.089 287.393C227.625 292.794 232.182 296.599 235.188 301.671C236.785 304.349 237.16 307.261 237.442 310.314C237.724 313.32 238.475 315.856 239.274 318.721C240.072 321.539 239.838 324.545 240.448 327.411C241.106 330.464 243.031 333 244.722 335.583C246.648 338.495 248.621 341.36 250.641 344.226C251.815 345.87 253.365 347.185 254.492 348.876C255.807 350.848 254.915 352.398 254.304 354.418C253.741 356.344 254.962 358.082 256.136 359.491C258.531 362.356 262.759 366.254 266.798 366.16C272.857 365.972 278.024 362.497 284.224 363.295C287.324 363.671 289.672 363.201 292.349 361.51C294.557 360.101 296.671 358.88 299.113 357.941C301.649 356.954 304.28 356.015 306.628 354.559C308.977 353.103 310.715 350.942 312.452 348.829C314.472 346.339 316.351 343.756 318.324 341.267C320.014 339.153 322.175 337.274 323.537 334.879C325.04 332.201 324.383 329.43 324.805 326.565C325.181 324.264 326.261 321.633 327.858 319.895C329.69 317.876 332.602 317.688 334.669 315.997C336.454 314.541 337.393 312.239 337.816 310.032C338.755 305.194 337.205 300.45 337.722 295.659C338.145 291.573 341.386 289.177 344.298 286.688C348.901 282.836 353.504 278.891 358.764 275.932C362.757 273.724 367.266 271.705 369.52 267.477C372.432 262.076 370.554 255.453 371.258 249.629C371.587 246.764 373.043 243.523 371.117 240.893C369.896 239.249 367.876 238.544 366.702 236.9C364.729 234.223 366.42 231.17 366.092 228.258C365.81 225.862 364.025 224.172 363.179 222.011C361.629 218.019 365.058 213.134 367.266 210.034C370.272 205.76 374.311 202.472 377.599 198.432C379.384 196.225 380.464 193.594 382.108 191.293C383.658 189.226 385.725 187.723 387.51 185.844C391.643 181.476 394.931 176.826 399.769 173.116H399.064C402.916 172.787 403.761 167.432 404.7 164.567C405.358 162.548 406.485 161.045 407.847 159.448C409.867 157.099 410.478 154.845 411.041 151.839C412.075 146.437 417.006 142.68 417.993 137.325C418.556 134.131 417.241 128.73 420.905 126.992C420.623 125.63 419.731 125.301 418.932 124.408Z" fill="#FEDF3B"/>
<path d="M415.597 264.8C414.986 263.907 415.315 262.733 415.409 261.747C415.644 258.365 414.047 253.48 411.276 251.414L410.242 252.447C404.559 254.608 408.645 257.285 405.686 260.15C405.498 259.868 405.123 259.445 404.935 259.117C402.727 259.962 401.741 262.076 400.567 264.001C398.97 266.538 396.621 268.604 393.991 270.014C390.468 271.939 385.255 271.892 383.188 275.885C382.624 276.965 382.953 277.388 383 278.515C383.047 279.642 381.732 279.642 381.356 280.488C380.041 283.447 380.229 285.654 381.168 288.66C382.812 293.827 378.82 296.692 376.424 300.638C375.156 302.704 375.062 304.301 376.048 306.462C377.082 308.81 375.579 311.816 375.344 314.259C375.109 316.842 376.002 319.331 378.35 320.694C380.511 321.962 382.906 320.928 385.02 320.083C387.18 319.238 389.059 318.956 391.314 319.191C393.897 319.472 395.165 318.016 396.057 315.668C397.044 313.038 397.748 310.689 399.439 308.388C401.271 305.898 403.056 303.55 403.948 300.544C404.606 298.336 404.982 296.129 405.921 293.968C406.907 291.713 408.082 289.553 409.021 287.298C410.994 282.648 411.229 277.67 411.839 272.691C412.732 271.282 414.235 270.906 415.503 272.033C416.912 270.577 417.851 268.839 417.241 266.773C416.959 265.927 416.066 265.504 415.597 264.8Z" fill="#FEDF3B"/>
<path fill-rule="evenodd" clip-rule="evenodd" d="M68.5237 285.772L54.9439 261.54H104.041L79.3898 209.31L43.2446 285.772H0L56.619 182.57H102.161L158.36 285.772H68.5237ZM158.568 225.814H212.468C226.048 225.814 231.478 224.978 231.478 215.368C231.478 206.176 227.095 205.132 213.096 205.132H158.36L146.241 182.57H222.287C258.224 182.57 271.592 198.238 271.592 214.951C271.592 231.036 259.268 248.796 219.784 248.796H201.816V285.772H158.36V225.814H158.568Z" fill="#1BAE70"/>
<path fill-rule="evenodd" clip-rule="evenodd" d="M384.196 278.044C371.241 284.099 355.159 287.026 338.027 287.026C286.213 287.026 268.456 258.195 268.456 234.379C268.456 204.298 294.779 181.105 340.113 181.105C356.62 181.105 371.036 183.613 383.155 188.21V218.083C370.619 211.397 359.753 208.473 347.012 208.473C325.286 208.473 307.523 218.291 307.523 233.96C307.523 249.42 325.703 259.447 347.432 259.447C359.962 259.447 370.203 256.939 384.199 250.464L384.196 278.044Z" fill="#1BAE70"/>
<path fill-rule="evenodd" clip-rule="evenodd" d="M499.997 278.044C487.042 284.099 470.96 287.026 453.828 287.026C402.014 287.026 384.257 258.195 384.257 234.379C384.257 204.298 410.58 181.105 455.913 181.105C472.421 181.105 486.837 183.613 498.956 188.21V218.083C486.42 211.397 475.554 208.473 462.813 208.473C441.087 208.473 423.324 218.291 423.324 233.96C423.324 249.42 441.503 259.447 463.233 259.447C475.762 259.447 486.004 256.939 500 250.464L499.997 278.044Z" fill="#1BAE70"/>
</svg>
